<?xml version="1.0" encoding="utf-8"?>
<svg width="50" height="50" fill="#000000" version="1.1" x="0px" y="0px" viewBox="14.526718139648438 41.068702697753906 62.59542465209961 62.213741302490234" style="enable-background:new 0 0 100 100;" preserveAspectRatio="xMaxYMax slice" xmlns="http://www.w3.org/2000/svg">
  <path d="M 47.52 42.328 C 30.92 42.328 17.52 55.728 17.52 72.328 C 17.52 88.928 30.92 102.328 47.52 102.328 C 64.12 102.328 77.52 88.928 77.52 72.328 C 77.52 55.728 64.12 42.328 47.52 42.328 Z M 48.52 97.928 L 48.52 96.328 C 48.52 95.728 48.12 95.328 47.52 95.328 C 46.92 95.328 46.52 95.728 46.52 96.328 L 46.52 97.928 C 33.12 97.428 22.42 86.728 21.92 73.328 L 23.52 73.328 C 24.12 73.328 24.52 72.928 24.52 72.328 C 24.52 71.728 24.12 71.328 23.52 71.328 L 21.92 71.328 C 22.42 57.928 33.12 47.228 46.52 46.728 L 46.52 48.328 C 46.52 48.928 46.92 49.328 47.52 49.328 C 48.12 49.328 48.52 48.928 48.52 48.328 L 48.52 46.728 C 61.92 47.228 72.62 57.928 73.12 71.328 L 71.52 71.328 C 70.92 71.328 70.52 71.728 70.52 72.328 C 70.52 72.928 70.92 73.328 71.52 73.328 L 73.12 73.328 C 72.62 86.728 61.92 97.428 48.52 97.928 Z M 68.22 65.728 C 68.42 66.228 68.12 66.828 67.52 67.028 L 47.82 73.328 C 47.72 73.328 47.62 73.328 47.52 73.328 C 47.32 73.328 47.22 73.328 47.02 73.228 L 37.82 67.928 C 37.32 67.628 37.22 67.028 37.42 66.528 C 37.72 66.028 38.32 65.928 38.82 66.128 L 47.62 71.228 L 66.92 65.128 C 67.52 64.928 68.02 65.228 68.22 65.728 Z"/>
</svg>
