<svg width='200' height='200' fill="#000000" xmlns="http://www.w3.org/2000/svg" xmlns:xlink="http://www.w3.org/1999/xlink" version="1.1" x="0px" y="0px" viewBox="15 5 100 100" style="enable-background:new 0 0 100 100;" xml:space="preserve"><path d="M50,20c-16.6,0-30,13.4-30,30s13.4,30,30,30s30-13.4,30-30S66.6,20,50,20z M51,75.6V74c0-0.6-0.4-1-1-1s-1,0.4-1,1v1.6  C35.6,75.1,24.9,64.4,24.4,51H26c0.6,0,1-0.4,1-1s-0.4-1-1-1h-1.6C24.9,35.6,35.6,24.9,49,24.4V26c0,0.6,0.4,1,1,1s1-0.4,1-1v-1.6  C64.4,24.9,75.1,35.6,75.6,49H74c-0.6,0-1,0.4-1,1s0.4,1,1,1h1.6C75.1,64.4,64.4,75.1,51,75.6z M70.7,43.4c0.2,0.5-0.1,1.1-0.7,1.3  L50.3,51c-0.1,0-0.2,0-0.3,0c-0.2,0-0.3,0-0.5-0.1l-9.2-5.3c-0.5-0.3-0.6-0.9-0.4-1.4c0.3-0.5,0.9-0.6,1.4-0.4l8.8,5.1l19.3-6.1  C70,42.6,70.5,42.9,70.7,43.4z"/></svg>
